<?xml version="1.0" encoding="UTF-8"?>
<svg width="110px" height="110px" viewBox="0 0 110 110" version="1.1" xmlns="http://www.w3.org/2000/svg" xmlns:xlink="http://www.w3.org/1999/xlink">
    <!-- Generator: Sketch 48.2 (47327) - http://www.bohemiancoding.com/sketch -->
    <title>Color logo</title>
    <desc>Created with Sketch.</desc>
    <defs>
        <linearGradient x1="0%" y1="0%" x2="97.9178333%" y2="97.9178333%" id="linearGradient-1">
            <stop stop-color="#5ECAFF" offset="0%"></stop>
            <stop stop-color="#776AFF" offset="100%"></stop>
        </linearGradient>
        <path d="M81.8634139,13.9237343 C63.1181924,-4.64124476 32.8041377,-4.64124476 14.0589162,13.9237343 C-4.68630539,32.4887133 -4.68630539,62.5112867 14.0589162,81.0762657 C32.8041377,99.6412448 63.1181924,99.6412448 81.8634139,81.0762657 C100.608635,62.5112867 100.608635,32.4887133 81.8634139,13.9237343 Z M78.7082776,50.0733634 L69.8615229,50.0733634 C68.7479454,59.4477588 61.6334224,66.9840374 52.4773405,68.8834247 C51.6730901,70.5990003 49.9408584,71.7631409 47.961165,71.7631409 C45.1772213,71.7631409 42.9500662,69.5574008 42.9500662,66.8002257 C42.9500662,64.0430506 45.1772213,61.8373105 47.961165,61.8373105 C49.5696659,61.8373105 50.9925705,62.5725572 51.9205518,63.7366978 C58.4782861,62.1436633 63.6131157,56.7518542 64.6648278,50.0733634 L28.5354239,50.0733634 C27.1125193,50.0733634 25.9370764,48.9092228 25.9370764,47.5 C25.9370764,36.961464 33.4846573,28.1997743 43.4449896,26.1165753 C44.24924,24.4009997 45.9814717,23.2368591 47.961165,23.2368591 C50.7451088,23.2368591 52.9722639,25.4425992 52.9722639,28.1997743 C52.9722639,30.9569494 50.7451088,33.1626895 47.961165,33.1626895 C46.3526642,33.1626895 44.9297596,32.4274428 44.0017783,31.2633022 C37.444044,32.8563367 32.3092144,38.2481458 31.2575023,44.9266366 L75.9861993,44.9266366 C74.6870255,30.7731377 62.623269,19.6218962 47.961165,19.6218962 C32.4329452,19.6218962 19.8124,32.12109 19.8124,47.5 C19.8124,62.87891 32.4329452,75.3781038 47.961165,75.3781038 C55.3231498,75.3781038 62.3139419,72.5596582 67.5725024,67.4742019 C68.6242146,66.4938729 70.2327154,66.4938729 71.2225621,67.5354724 C72.2124088,68.5770719 72.2124088,70.1701064 71.1606967,71.1504353 C64.9122895,77.15495 56.6223235,80.5248307 47.8992996,80.5248307 C29.5252706,80.5248307 14.5538395,65.6973557 14.5538395,47.5 C14.5538395,29.3026443 29.5252706,14.4751693 47.8992996,14.4751693 C66.2733287,14.4751693 81.2447598,29.3026443 81.2447598,47.5 C81.3066252,48.9092228 80.1311822,50.0733634 78.7082776,50.0733634 Z" id="path-2"></path>
    </defs>
    <g id="Page-1" stroke="none" stroke-width="1" fill="none" fill-rule="evenodd">
        <g id="Color-logo">
            <g id="Group" transform="translate(9.000000, 8.000000)">
                <mask id="mask-3" fill="white">
                    <use xlink:href="#path-2"></use>
                </mask>
                <use id="Clip-2" fill="url(#linearGradient-1)" xlink:href="#path-2"></use>
            </g>
        </g>
    </g>
</svg>