<svg xmlns="http://www.w3.org/2000/svg" width="38" height="38" viewBox="0 0 38 38">
    <g fill="none" fill-rule="evenodd">
        <path stroke="#FFF" d="M19 1c9.94 0 18 8.06 18 18s-8.06 18-18 18S1 28.94 1 19 9.06 1 19 1"/>
        <path fill="#FFF" d="M15.116 16.259v8.848H12.17V16.26h2.946zm.188-2.732c.006.434-.145.797-.451 1.09-.307.29-.71.437-1.21.437h-.018c-.488 0-.881-.146-1.179-.438a1.463 1.463 0 0 1-.446-1.09c0-.44.153-.804.46-1.093.306-.289.707-.433 1.2-.433.495 0 .89.144 1.188.433.298.289.45.653.456 1.094zm10.41 6.509v5.071h-2.937v-4.732c0-.625-.12-1.115-.362-1.469-.24-.354-.617-.531-1.13-.531-.374 0-.688.103-.941.308-.253.205-.442.46-.567.763-.066.179-.098.42-.098.724v4.937H16.74c.012-2.375.018-4.3.018-5.777 0-1.476-.003-2.357-.009-2.642l-.009-.43h2.938v1.287h-.018c.119-.19.24-.357.366-.5.125-.143.293-.298.504-.465a2.32 2.32 0 0 1 .777-.388 3.54 3.54 0 0 1 1.022-.138c1.018 0 1.837.337 2.456 1.013.619.676.928 1.665.928 2.969z"/>
    </g>
</svg>
