<svg xmlns="http://www.w3.org/2000/svg" width="38" height="38" viewBox="0 0 38 38">
    <g fill="none" fill-rule="evenodd">
        <path stroke="#FFF" d="M37 19c0 9.94-8.06 18-18 18S1 28.94 1 19 9.06 1 19 1s18 8.06 18 18z"/>
        <path fill="#FFF" d="M22.714 12.107v2.357h-1.401c-.512 0-.858.107-1.036.322-.179.214-.268.535-.268.964v1.688h2.616l-.348 2.642h-2.268v6.777h-2.732V20.08H15v-2.642h2.277V15.49c0-1.107.31-1.966.928-2.576.62-.61 1.444-.915 2.474-.915.875 0 1.553.036 2.035.107z"/>
    </g>
</svg>
