<svg xmlns="http://www.w3.org/2000/svg" width="38" height="38" viewBox="0 0 38 38">
    <g fill="none" fill-rule="evenodd">
        <path stroke="#FFF" d="M19 37C9.06 37 1 28.94 1 19S9.06 1 19 1s18 8.06 18 18-8.06 18-18 18z"/>
        <path fill="#FFF" d="M26.071 14.357a6.043 6.043 0 0 1-1.446 1.491 8.193 8.193 0 0 1-.33 2.692c-.227.771-.57 1.51-1.032 2.219a8.722 8.722 0 0 1-1.647 1.88c-.637.544-1.405.979-2.303 1.303a8.43 8.43 0 0 1-2.884.487A8.008 8.008 0 0 1 12 23.134c.208.024.44.036.696.036 1.34 0 2.533-.411 3.58-1.232a2.812 2.812 0 0 1-1.678-.576 2.82 2.82 0 0 1-1.018-1.424c.197.03.378.044.545.044.256 0 .509-.033.759-.098a2.837 2.837 0 0 1-1.656-.996 2.786 2.786 0 0 1-.657-1.834v-.036c.405.226.84.348 1.304.366a2.88 2.88 0 0 1-.938-1.027 2.81 2.81 0 0 1-.348-1.375c0-.524.131-1.009.393-1.455a8.175 8.175 0 0 0 2.63 2.13 8.036 8.036 0 0 0 3.317.888 3.203 3.203 0 0 1-.072-.661c0-.798.281-1.478.844-2.04A2.78 2.78 0 0 1 21.74 13a2.78 2.78 0 0 1 2.107.91 5.655 5.655 0 0 0 1.83-.696 2.8 2.8 0 0 1-1.267 1.59 5.746 5.746 0 0 0 1.66-.447z"/>
    </g>
</svg>
