<svg xmlns="http://www.w3.org/2000/svg" xmlns:xlink="http://www.w3.org/1999/xlink" width="183" height="30" viewBox="0 0 183 30">
    <defs>
        <path id="a" d="M25.603 4.397c-5.863-5.863-15.343-5.863-21.206 0-5.863 5.863-5.863 15.343 0 21.206 5.863 5.863 15.343 5.863 21.206 0 5.863-5.863 5.863-15.343 0-21.206zm-.987 11.416H21.85a6.913 6.913 0 0 1-5.437 5.94 1.56 1.56 0 0 1-2.98-.658c0-.87.697-1.567 1.568-1.567.503 0 .948.232 1.238.6 2.051-.504 3.657-2.206 3.986-4.315h-11.3A.818.818 0 0 1 8.113 15c0-3.328 2.36-6.095 5.476-6.753a1.56 1.56 0 0 1 2.98.658A1.56 1.56 0 0 1 15 10.472c-.503 0-.948-.232-1.238-.6-2.051.504-3.657 2.206-3.986 4.315h13.989c-.406-4.47-4.18-7.99-8.765-7.99-4.856 0-8.804 3.947-8.804 8.803 0 4.856 3.948 8.804 8.804 8.804 2.302 0 4.489-.89 6.134-2.496a.8.8 0 0 1 1.141.019.8.8 0 0 1-.02 1.142 10.425 10.425 0 0 1-7.274 2.96C9.234 25.429 4.55 20.747 4.55 15S9.235 4.571 14.982 4.571C20.727 4.571 25.41 9.253 25.41 15a.789.789 0 0 1-.794.813z"/>
    </defs>
    <g fill="#FFF" fill-rule="evenodd">
        <path d="M182.685 12.08l-1.257.089c-.18-1.332-1.1-2.176-2.74-2.154-1.796-.022-2.65.822-2.65 2.065 0 1.465 1.235 1.554 2.987 1.954 2.47.577 3.975 1.176 3.975 3.174 0 2.198-1.685 3.33-4.132 3.33-2.403 0-4.02-1.132-4.335-3.196l1.258-.09c.247 1.466 1.393 2.199 3.1 2.199 1.661 0 2.851-.689 2.851-2.154 0-1.42-.966-1.731-3.234-2.242-2.11-.489-3.728-.8-3.728-2.953 0-1.887 1.37-3.197 3.953-3.175 2.38-.022 3.683 1.288 3.952 3.153zm-19.739 2.065h8.04c0-2.398-1.325-4.13-3.908-4.13-2.29 0-4.042 1.443-4.132 4.13zm0 1.043c.068 2.709 1.841 4.263 4.155 4.263 1.976 0 3.323-.91 3.75-2.465l1.258.09c-.517 2.064-2.358 3.462-4.963 3.462-3.145 0-5.525-2.13-5.525-5.816 0-3.685 2.336-5.817 5.48-5.817 3.256 0 5.12 2.22 5.12 5.484v.799h-9.275zm-2.852-5.04c-2.11 0-3.413 1.532-3.413 3.353v6.838h-1.258V9.105h1.213v1.843c.382-.977 1.527-1.998 3.458-1.998v1.199zm-13.047 5.085c-1.841.11-3.031.688-3.031 2.197 0 1.466 1.055 2.02 2.537 2.02 1.887 0 3.616-.998 3.616-3.884v-.511l-3.122.178zm4.38-2.065v7.17h-1.28v-1.687c-.831 1.244-2.179 1.887-3.773 1.887-2.134 0-3.616-1.065-3.616-3.086 0-2.22 1.685-3.13 4.155-3.263l3.234-.2v-.799c0-1.976-.921-3.153-2.83-3.153-1.976 0-2.964 1.399-2.964 2.798l-1.28-.044c0-1.932 1.527-3.886 4.221-3.886 2.695 0 4.133 1.599 4.133 4.263zm-15.383 7.17l-3.436-9.124-3.48 9.125h-.99l-4.31-11.234h1.37l3.48 9.236 3.458-9.236h.899l3.48 9.236 3.46-9.236h1.369l-4.29 11.234h-1.01zm-12.778-1.132v1.133c-.336.066-.786.11-1.437.11-1.864 0-3.166-.976-3.166-3.396l.022-6.86h-2.156V9.105h2.156l.022-3.974h1.28l-.022 3.974h3.256v1.088h-3.256l-.045 6.638c0 1.843.92 2.487 2.156 2.487.494 0 .898-.067 1.19-.112zm-7.118-16.14v1.088a3.934 3.934 0 0 0-.584-.044c-1.527 0-2.538.955-2.538 2.708v2.287h3.077v1.088h-3.077v10.146h-1.235V10.193h-2.313V9.105h2.313V6.841c0-2.465 1.437-3.841 3.638-3.841.337 0 .539.022.719.067zM97.8 14.723c0 2.975 1.954 4.729 4.469 4.729 2.493 0 4.469-1.754 4.469-4.73 0-2.974-1.976-4.706-4.47-4.706-2.514 0-4.468 1.732-4.468 4.707zm10.218 0c0 3.596-2.538 5.816-5.75 5.816-3.21 0-5.726-2.22-5.726-5.816 0-3.597 2.515-5.817 5.727-5.817 3.211 0 5.75 2.22 5.75 5.817zM93.67 12.08l-1.257.089c-.18-1.332-1.1-2.176-2.74-2.154-1.797-.022-2.65.822-2.65 2.065 0 1.465 1.235 1.554 2.987 1.954 2.47.577 3.974 1.176 3.974 3.174 0 2.198-1.684 3.33-4.131 3.33-2.404 0-4.02-1.132-4.335-3.196l1.258-.09c.247 1.466 1.392 2.199 3.099 2.199 1.662 0 2.852-.689 2.852-2.154 0-1.42-.966-1.731-3.234-2.242-2.11-.489-3.728-.8-3.728-2.953 0-1.887 1.37-3.197 3.953-3.175 2.38-.022 3.683 1.288 3.952 3.153zm-10.038.999l-3.211.266c-.158-1.176-1.033-1.931-2.29-1.931-1.528 0-2.628 1.154-2.628 3.197 0 2.02 1.1 3.174 2.627 3.174 1.28 0 2.133-.71 2.313-1.864l3.19.288c-.45 2.709-2.65 4.374-5.503 4.374-3.413 0-5.951-2.22-5.951-5.972 0-3.774 2.515-5.972 5.951-5.972 2.83 0 5.076 1.665 5.502 4.44zm-17.18 7.26h3.28V8.86h-3.28v11.478zm3.616-15.23c0 1.066-.875 1.931-1.976 1.931a1.93 1.93 0 0 1-1.954-1.931c0-1.088.899-1.954 1.954-1.954 1.1 0 1.976.866 1.976 1.954zm-14.91 9.235v.533c0 1.843 1.122 2.93 2.739 2.93 1.64 0 2.808-1.154 2.808-3.196 0-2.043-1.168-3.197-2.808-3.197-1.617 0-2.74 1.088-2.74 2.93zm8.87.267c0 3.597-2.313 5.972-5.614 5.972-1.482 0-2.65-.555-3.257-1.221V26h-3.278V8.86h3.099v1.2c.606-.8 1.82-1.421 3.436-1.421 3.301 0 5.614 2.375 5.614 5.972zm-22.546-1.132h4.671c-.068-1.399-.786-2.31-2.268-2.31-1.393 0-2.313.844-2.403 2.31zm0 2.153c.067 1.421.943 2.331 2.425 2.331 1.145 0 1.886-.466 2.134-1.265l3.3.155c-.403 2.176-2.627 3.73-5.344 3.73-3.548 0-5.996-2.287-5.996-5.972 0-3.708 2.448-5.972 5.906-5.972 3.346 0 5.547 2.131 5.547 5.705v1.288h-7.972z"/>
        <use xlink:href="#a"/>
    </g>
</svg>
