<?xml version="1.0" encoding="UTF-8"?>
<svg width="600px" height="110px" viewBox="0 0 600 110" version="1.1" xmlns="http://www.w3.org/2000/svg" xmlns:xlink="http://www.w3.org/1999/xlink">
    <!-- Generator: Sketch 48.2 (47327) - http://www.bohemiancoding.com/sketch -->
    <title>Monochrome logo</title>
    <desc>Created with Sketch.</desc>
    <defs>
        <path d="M81.8634139,13.9237343 C63.1181924,-4.64124476 32.8041377,-4.64124476 14.0589162,13.9237343 C-4.68630539,32.4887133 -4.68630539,62.5112867 14.0589162,81.0762657 C32.8041377,99.6412448 63.1181924,99.6412448 81.8634139,81.0762657 C100.608635,62.5112867 100.608635,32.4887133 81.8634139,13.9237343 Z M78.7082776,50.0733634 L69.8615229,50.0733634 C68.7479454,59.4477588 61.6334224,66.9840374 52.4773405,68.8834247 C51.6730901,70.5990003 49.9408584,71.7631409 47.961165,71.7631409 C45.1772213,71.7631409 42.9500662,69.5574008 42.9500662,66.8002257 C42.9500662,64.0430506 45.1772213,61.8373105 47.961165,61.8373105 C49.5696659,61.8373105 50.9925705,62.5725572 51.9205518,63.7366978 C58.4782861,62.1436633 63.6131157,56.7518542 64.6648278,50.0733634 L28.5354239,50.0733634 C27.1125193,50.0733634 25.9370764,48.9092228 25.9370764,47.5 C25.9370764,36.961464 33.4846573,28.1997743 43.4449896,26.1165753 C44.24924,24.4009997 45.9814717,23.2368591 47.961165,23.2368591 C50.7451088,23.2368591 52.9722639,25.4425992 52.9722639,28.1997743 C52.9722639,30.9569494 50.7451088,33.1626895 47.961165,33.1626895 C46.3526642,33.1626895 44.9297596,32.4274428 44.0017783,31.2633022 C37.444044,32.8563367 32.3092144,38.2481458 31.2575023,44.9266366 L75.9861993,44.9266366 C74.6870255,30.7731377 62.623269,19.6218962 47.961165,19.6218962 C32.4329452,19.6218962 19.8124,32.12109 19.8124,47.5 C19.8124,62.87891 32.4329452,75.3781038 47.961165,75.3781038 C55.3231498,75.3781038 62.3139419,72.5596582 67.5725024,67.4742019 C68.6242146,66.4938729 70.2327154,66.4938729 71.2225621,67.5354724 C72.2124088,68.5770719 72.2124088,70.1701064 71.1606967,71.1504353 C64.9122895,77.15495 56.6223235,80.5248307 47.8992996,80.5248307 C29.5252706,80.5248307 14.5538395,65.6973557 14.5538395,47.5 C14.5538395,29.3026443 29.5252706,14.4751693 47.8992996,14.4751693 C66.2733287,14.4751693 81.2447598,29.3026443 81.2447598,47.5 C81.3066252,48.9092228 80.1311822,50.0733634 78.7082776,50.0733634 Z" id="path-1"></path>
    </defs>
    <g id="Page-1" stroke="none" stroke-width="1" fill="none" fill-rule="evenodd">
        <g id="Monochrome-logo">
            <g id="Group" transform="translate(9.000000, 8.000000)">
                <path d="M581.911411,38.7170114 L577.913002,39.0054521 C577.340973,34.6781921 574.412624,31.9380055 569.197448,32.0101157 C563.484884,31.9380055 560.770162,34.6781921 560.770162,38.7170114 C560.770162,43.4762828 564.697791,43.7653732 570.269439,45.0627066 C578.126628,46.9375711 582.912621,48.8845458 582.912621,55.375111 C582.912621,62.5140182 577.554599,66.191637 569.769477,66.191637 C562.127845,66.191637 556.985379,62.5140182 555.984168,55.8084217 L559.984507,55.5193314 C560.770162,60.2786028 564.414029,62.6582385 569.841544,62.6582385 C575.126856,62.6582385 578.912282,60.4228231 578.912282,55.6635517 C578.912282,51.047851 575.840444,50.0389582 568.62735,48.3804242 C561.912288,46.7933508 556.770466,45.7838084 556.770466,38.7884719 C556.770466,32.6597569 561.126634,28.404607 569.340938,28.4767172 C576.911791,28.404607 581.054976,32.6597569 581.911411,38.7170114 Z M519.132402,45.4232575 L544.703173,45.4232575 C544.703173,37.6347092 540.487921,32.0101157 532.273616,32.0101157 C524.988456,32.0101157 519.418095,36.6979266 519.132402,45.4232575 Z M519.132402,48.8124356 C519.346672,57.6105264 524.988456,62.6582385 532.346326,62.6582385 C538.631562,62.6582385 542.916307,59.7017214 544.27399,54.6540093 L548.27433,54.94245 C546.630954,61.6486961 540.773613,66.191637 532.488529,66.191637 C522.488646,66.191637 514.91715,59.2690604 514.91715,47.298122 C514.91715,35.3278333 522.3458,28.404607 532.346326,28.404607 C542.702681,28.404607 548.630802,35.616274 548.630802,46.2164694 L548.630802,48.8124356 L519.132402,48.8124356 Z M510.062307,32.4434263 C503.348532,32.4434263 499.205347,37.4183786 499.205347,43.3320625 L499.205347,65.5426454 L495.206938,65.5426454 L495.206938,29.0542482 L499.0625,29.0542482 L499.0625,35.0393926 C500.277337,31.8658953 503.920561,28.5488274 510.062307,28.5488274 L510.062307,32.4434263 Z M468.567394,48.9573056 C462.710053,49.3172068 458.92527,51.192721 458.92527,56.0955631 C458.92527,60.8554842 462.281514,62.6582385 466.996085,62.6582385 C472.996272,62.6582385 478.49521,59.4132807 478.49521,50.0389582 L478.49521,48.3804242 L468.567394,48.9573056 Z M482.49555,42.2497602 L482.49555,65.5426454 L478.424431,65.5426454 L478.424431,60.0622723 C475.782418,64.100442 471.495743,66.191637 466.4247,66.191637 C459.638858,66.191637 454.924931,62.7303487 454.924931,56.1676733 C454.924931,48.9573056 460.282953,46.0001389 468.138855,45.5681275 L478.424431,44.9184863 L478.424431,42.3225201 C478.424431,35.9047146 475.496082,32.0822258 469.425115,32.0822258 C463.139236,32.0822258 459.996617,36.6251667 459.996617,41.1681076 L455.924212,41.0251866 C455.924212,34.7509519 460.782272,28.404607 469.352405,28.404607 C477.923825,28.404607 482.49555,33.5971891 482.49555,42.2497602 Z M433.571343,65.5426454 L422.643603,35.9047146 L411.573017,65.5426454 L408.429755,65.5426454 L394.716512,29.0542482 L399.073324,29.0542482 L410.14391,59.0527298 L421.143074,29.0542482 L424.001286,29.0542482 L435.071229,59.0527298 L446.071036,29.0542482 L450.427847,29.0542482 L436.785384,65.5426454 L433.571343,65.5426454 Z M392.932864,61.8650266 L392.932864,65.5426454 C391.861517,65.7589759 390.433055,65.9038459 388.361783,65.9038459 C382.432376,65.9038459 378.291121,62.7303487 378.291121,54.8703398 L378.361901,32.586997 L371.505279,32.586997 L371.505279,29.0542482 L378.361901,29.0542482 L378.433324,16.1458776 L382.505086,16.1458776 L382.432376,29.0542482 L392.790018,29.0542482 L392.790018,32.586997 L382.432376,32.586997 L382.290173,54.1485884 C382.290173,60.1343824 385.218522,62.2262271 389.148081,62.2262271 C390.718747,62.2262271 392.00372,62.0092469 392.932864,61.8650266 Z M370.292373,9.43963149 L370.292373,12.9723803 C369.792411,12.9009198 369.220382,12.82816 368.434728,12.82816 C363.579241,12.82816 360.363913,15.9295471 360.363913,21.6262507 L360.363913,29.0542482 L370.148883,29.0542482 L370.148883,32.586997 L360.363913,32.586997 L360.363913,65.5426454 L356.436284,65.5426454 L356.436284,32.586997 L349.078414,32.586997 L349.078414,29.0542482 L356.436284,29.0542482 L356.436284,21.6990106 C356.436284,13.6934821 361.006721,9.22330097 368.006189,9.22330097 C369.077536,9.22330097 369.720344,9.2947615 370.292373,9.43963149 Z M311.940956,47.298122 C311.940956,56.9608852 318.154769,62.6582385 326.154804,62.6582385 C334.082772,62.6582385 340.367365,56.9608852 340.367365,47.298122 C340.367365,37.6347092 334.082772,32.0101157 326.154804,32.0101157 C318.154769,32.0101157 311.940956,37.6347092 311.940956,47.298122 Z M344.439771,47.298122 C344.439771,58.97997 336.367669,66.191637 326.154804,66.191637 C315.940652,66.191637 307.940617,58.97997 307.940617,47.298122 C307.940617,35.616274 315.940652,28.404607 326.154804,28.404607 C336.367669,28.404607 344.439771,35.616274 344.439771,47.298122 Z M298.801029,38.7170114 L294.800689,39.0054521 C294.228661,34.6781921 291.300956,31.9380055 286.087067,32.0101157 C280.372572,31.9380055 277.659136,34.6781921 277.659136,38.7170114 C277.659136,43.4762828 281.587409,43.7653732 287.158414,45.0627066 C295.015602,46.9375711 299.799666,48.8845458 299.799666,55.375111 C299.799666,62.5140182 294.443574,66.191637 286.659095,66.191637 C279.015532,66.191637 273.872423,62.5140182 272.873786,55.8084217 L276.872838,55.5193314 C277.659136,60.2786028 281.301073,62.6582385 286.729875,62.6582385 C292.015187,62.6582385 295.801257,60.4228231 295.801257,55.6635517 C295.801257,51.047851 292.729418,50.0389582 285.515038,48.3804242 C278.801906,46.7933508 273.658797,45.7838084 273.658797,38.7884719 C273.658797,32.6597569 278.016252,28.404607 286.229913,28.4767172 C293.801409,28.404607 297.943308,32.6597569 298.801029,38.7170114 Z M266.875529,41.9619692 L256.66202,42.8272913 C256.160772,39.0054521 253.375269,36.5530566 249.37686,36.5530566 C244.5188,36.5530566 241.01971,40.3027856 241.01971,46.9375711 C241.01971,53.5002465 244.5188,57.2493259 249.37686,57.2493259 C253.447336,57.2493259 256.160772,54.94245 256.7328,51.192721 L266.875529,52.1295036 C265.446423,60.9269447 258.446956,66.3358573 249.37686,66.3358573 C238.5199,66.3358573 230.449085,59.12484 230.449085,46.9375711 C230.449085,34.6781921 238.447833,27.5392849 249.37686,27.5392849 C258.376176,27.5392849 265.51849,32.9475479 266.875529,41.9619692 Z M212.237472,65.5426454 L222.664607,65.5426454 L222.664607,28.259737 L212.237472,28.259737 L212.237472,65.5426454 Z M223.736597,16.0737674 C223.736597,19.5350557 220.951095,22.3473525 217.452004,22.3473525 C213.950984,22.3473525 211.236904,19.5350557 211.236904,16.0737674 C211.236904,12.5397193 214.094473,9.72742254 217.452004,9.72742254 C220.951095,9.72742254 223.736597,12.5397193 223.736597,16.0737674 Z M176.312277,46.0722491 L176.312277,47.8028932 C176.312277,53.7886872 179.884077,57.3220857 185.0259,57.3220857 C190.241076,57.3220857 193.955079,53.571707 193.955079,46.9375711 C193.955079,40.3027856 190.241076,36.5530566 185.0259,36.5530566 C179.884077,36.5530566 176.312277,40.0871047 176.312277,46.0722491 Z M204.525703,46.9375711 C204.525703,58.6207184 197.16912,66.3358573 186.669275,66.3358573 C181.955992,66.3358573 178.241345,64.533103 176.312277,62.3691482 L176.312277,83.9320388 L165.884499,83.9320388 L165.884499,28.259737 L175.742179,28.259737 L175.742179,32.154336 C177.66996,29.5583698 181.527453,27.5392849 186.669275,27.5392849 C197.16912,27.5392849 204.525703,35.2557231 204.525703,46.9375711 Z M132.818159,43.2599523 L147.674815,43.2599523 C147.459903,38.7170114 145.175006,35.7598447 140.460435,35.7598447 C136.0322,35.7598447 133.103852,38.5000312 132.818159,43.2599523 Z M132.818159,50.2552887 C133.031785,54.8703398 135.817288,57.8262073 140.531858,57.8262073 C144.174438,57.8262073 146.530758,56.3125433 147.3177,53.716577 L157.816258,54.2206986 C156.531285,61.2881452 149.459751,66.3358573 140.817551,66.3358573 C129.532695,66.3358573 121.747573,58.9085095 121.747573,46.9375711 C121.747573,34.8945226 129.532695,27.5392849 140.531858,27.5392849 C151.173906,27.5392849 158.17466,34.4625112 158.17466,46.0722491 L158.17466,50.2552887 L132.818159,50.2552887 Z" id="Fill-1" fill="#4A5668"></path>
                <mask id="mask-2" fill="white">
                    <use xlink:href="#path-1"></use>
                </mask>
                <use id="Clip-2" fill="#4A5668" xlink:href="#path-1"></use>
            </g>
        </g>
    </g>
</svg>