<svg xmlns="http://www.w3.org/2000/svg" width="37" height="35" viewBox="0 0 37 35">
    <g fill="none" fill-rule="evenodd">
        <path d="M0-1h36v36H0z"/>
        <g stroke="#4A5668" stroke-linejoin="round">
            <path d="M26.24 30.67a5.402 5.402 0 0 1 0-7.666 5.46 5.46 0 0 1 5.6-1.296c.05-.47.076-.945.076-1.427 0-5.551-3.382-10.315-8.205-12.367a5.44 5.44 0 0 1-5.304 4.204 5.44 5.44 0 0 1-5.304-4.204C8.28 9.966 4.9 14.73 4.9 20.28c0 .482.027.958.076 1.427a5.46 5.46 0 0 1 5.6 1.296 5.402 5.402 0 0 1 0 7.666c-.111.11-.227.211-.344.31a13.49 13.49 0 0 0 8.176 2.745c3.075 0 5.907-1.024 8.177-2.745a5.349 5.349 0 0 1-.344-.31z"/>
            <path d="M23.854 6.696c0 2.994-2.438 5.421-5.446 5.421-3.01 0-5.448-2.427-5.448-5.421s2.439-5.42 5.448-5.42c3.008 0 5.446 2.426 5.446 5.42z"/>
            <path fill="#4A5668" d="M2.872 23.004a5.465 5.465 0 0 1 7.703 0 5.403 5.403 0 0 1 0 7.666 5.465 5.465 0 0 1-7.703 0 5.402 5.402 0 0 1 0-7.666z"/>
            <path d="M26.24 23.004a5.464 5.464 0 0 1 7.702 0 5.402 5.402 0 0 1 0 7.666 5.464 5.464 0 0 1-7.702 0 5.402 5.402 0 0 1 0-7.666z"/>
        </g>
    </g>
</svg>
