<svg xmlns="http://www.w3.org/2000/svg" width="35" height="32" viewBox="0 0 35 32">
    <g fill="none" fill-rule="evenodd">
        <path d="M-1-2h36v36H-1z"/>
        <path stroke="#4A5668" stroke-linecap="round" stroke-linejoin="round" d="M9.052 28.6c0 1.325-1.081 2.4-2.414 2.4a2.407 2.407 0 0 1-2.414-2.4c0-1.325 1.08-2.4 2.414-2.4a2.407 2.407 0 0 1 2.414 2.4zM25.345 28.6c0 1.325-1.08 2.4-2.414 2.4a2.407 2.407 0 0 1-2.414-2.4c0-1.325 1.081-2.4 2.414-2.4a2.407 2.407 0 0 1 2.414 2.4z"/>
        <path stroke="#4A5668" stroke-linecap="round" stroke-linejoin="round" d="M35 1h-5.326l-6.14 25.2H6.638"/>
        <path fill="#4A5668" d="M24.138 23.8H4.565L0 9.4h27.627"/>
    </g>
</svg>
