<svg xmlns="http://www.w3.org/2000/svg" xmlns:xlink="http://www.w3.org/1999/xlink" width="50" height="50" viewBox="0 0 50 50">
    <defs>
        <path id="a" d="M0 .68h49.319V50H0z"/>
    </defs>
    <g fill="none" fill-rule="evenodd">
        <g>
            <mask id="b" fill="#fff">
                <use xlink:href="#a"/>
            </mask>
            <path fill="#25C16F" d="M24.66 49.999C11.04 49.999 0 38.96 0 25.34v-.002C0 11.722 11.04.68 24.66.68h18.493a6.167 6.167 0 0 1 6.166 6.167V25.34c0 13.62-11.04 24.658-24.66 24.658" mask="url(#b)"/>
        </g>
        <path fill="#FFF" d="M25 11.702c-6.205 0-11.17 5.086-11.17 11.446v7.629c0 2.107 1.666 3.814 3.725 3.814h3.102v-8.9h-4.345v-2.543c0-4.917 3.89-8.9 8.688-8.9s8.688 3.983 8.688 8.9v2.543h-4.345v8.9h2.916v.192c0 1.896-1.499 3.434-3.35 3.434h-3.35c-.31 0-.559.256-.559.571 0 .318.25.574.56.574h3.35c2.466 0 4.468-2.05 4.468-4.58v-.309c1.606-.425 2.792-1.918 2.792-3.696v-7.63c0-6.359-5.003-11.445-11.17-11.445"/>
    </g>
</svg>
