<svg xmlns="http://www.w3.org/2000/svg" width="38" height="38" viewBox="0 0 38 38">
    <g fill="none" fill-rule="evenodd" stroke="#4A5668" stroke-linejoin="round">
        <path d="M22.913 34.652h3.13a5.478 5.478 0 0 0 5.479-5.478v-2.247"/>
        <path stroke-linecap="round" d="M22.913 34.652a2.348 2.348 0 1 1-4.696-.001 2.348 2.348 0 0 1 4.696.001zM33.276 22.724c2.483 0 3.724-1.375 3.724-3.103 0-1.729-1.241-3.104-3.724-3.104M4.724 22.724C2.241 22.724 1 21.35 1 19.621c0-1.729 1.241-3.104 3.724-3.104"/>
        <path fill="#4A5668" stroke-linecap="round" d="M27.069 27.069h3.103c1.916 0 3.104-.62 3.104-2.59v-9.392c0-1.673-1.375-2.915-3.104-2.915H27.07V27.07zM10.931 27.069H7.828c-1.916 0-3.104-.62-3.104-2.59v-9.392c0-1.673 1.375-2.915 3.104-2.915h3.103V27.07z"/>
        <path d="M7.828 12.172C7.828 6.122 12.948 1 19 1c6.05 0 10.956 5.121 10.956 11.172"/>
    </g>
</svg>
